<svg viewBox="0 0 1200 630" width="1200" height="630" xmlns="http://www.w3.org/2000/svg" font-family="-apple-system,'Segoe UI',Roboto,Helvetica,Arial,sans-serif">
  <!-- Phương án B — Terracotta bold | Claude Chat Viewer og-image 1200x630
       Tác giả: Hiếu iceTea 🍀 — Hỗ trợ bởi: Claude (Claude Code, model Claude Fable 5) -->
  <defs>
    <linearGradient id="bgrad" x1="0" y1="0" x2="1" y2="1">
      <stop offset="0" stop-color="#d1704e"/>
      <stop offset="1" stop-color="#a84e2e"/>
    </linearGradient>
  </defs>
  <rect width="1200" height="630" fill="url(#bgrad)"/>
  <g transform="translate(700,130) scale(24)" fill="none" stroke="#ffffff" opacity=".13" stroke-width="1.6" stroke-linecap="round" stroke-linejoin="round">
    <path d="M21 15a2 2 0 0 1-2 2H7l-4 4V5a2 2 0 0 1 2-2h14a2 2 0 0 1 2 2z"/>
  </g>
  <rect x="90" y="86" width="128" height="128" rx="32" fill="#ffffff" opacity=".18"/>
  <g transform="translate(114,110) scale(3.3333)" fill="none" stroke="#ffffff" stroke-width="2" stroke-linecap="round" stroke-linejoin="round">
    <path d="M21 15a2 2 0 0 1-2 2H7l-4 4V5a2 2 0 0 1 2-2h14a2 2 0 0 1 2 2z"/>
  </g>
  <text x="90" y="330" font-size="88" font-weight="800" letter-spacing="-1.5" fill="#ffffff">Claude Chat Viewer</text>
  <text x="90" y="392" font-size="40" fill="#fff3e3" opacity=".95">Xem offline dữ liệu export từ claude.ai</text>
  <g font-size="28" font-weight="600">
    <rect x="90" y="436" width="356" height="56" rx="28" fill="#ffffff" opacity=".14" stroke="#ffffff" stroke-opacity=".4"/>
    <text x="268" y="473" text-anchor="middle" fill="#ffffff">100% trong trình duyệt</text>
    <rect x="466" y="436" width="286" height="56" rx="28" fill="#ffffff" opacity=".14" stroke="#ffffff" stroke-opacity=".4"/>
    <text x="609" y="473" text-anchor="middle" fill="#ffffff">Tìm kiếm toàn văn</text>
    <rect x="772" y="436" width="314" height="56" rx="28" fill="#ffffff" opacity=".14" stroke="#ffffff" stroke-opacity=".4"/>
    <text x="929" y="473" text-anchor="middle" fill="#ffffff">Xuất Markdown · ZIP</text>
  </g>
  <line x1="90" y1="540" x2="1110" y2="540" stroke="#ffffff" stroke-opacity=".35" stroke-width="2"/>
  <text x="90" y="586" font-size="30" fill="#fff3e3" opacity=".9">tools.hieu-icetea.io.vn</text>
  <text x="1110" y="586" font-size="30" text-anchor="end" font-weight="600" fill="#ffffff">Hiếu iceTea 🍀</text>
</svg>
