<svg viewBox="0 0 1200 630" width="1200" height="630" xmlns="http://www.w3.org/2000/svg" font-family="-apple-system,'Segoe UI',Roboto,Helvetica,Arial,sans-serif">
  <!-- Phương án C — Dark warm glow | Claude Chat Viewer og-image 1200x630
       Tác giả: Hiếu iceTea 🍀 — Hỗ trợ bởi: Claude (Claude Code, model Claude Fable 5) -->
  <defs>
    <radialGradient id="cglow" cx=".5" cy=".5" r=".5">
      <stop offset="0" stop-color="#e08a63" stop-opacity=".32"/>
      <stop offset="1" stop-color="#e08a63" stop-opacity="0"/>
    </radialGradient>
    <radialGradient id="cglow2" cx=".5" cy=".5" r=".5">
      <stop offset="0" stop-color="#e08a63" stop-opacity=".14"/>
      <stop offset="1" stop-color="#e08a63" stop-opacity="0"/>
    </radialGradient>
  </defs>
  <rect width="1200" height="630" fill="#1e1d1a"/>
  <circle cx="240" cy="240" r="520" fill="url(#cglow)"/>
  <circle cx="1080" cy="560" r="420" fill="url(#cglow2)"/>
  <rect x="90" y="86" width="128" height="128" rx="32" fill="#26241f" stroke="#3a372f" stroke-width="2"/>
  <g transform="translate(114,110) scale(3.3333)" fill="none" stroke="#e08a63" stroke-width="2" stroke-linecap="round" stroke-linejoin="round">
    <path d="M21 15a2 2 0 0 1-2 2H7l-4 4V5a2 2 0 0 1 2-2h14a2 2 0 0 1 2 2z"/>
  </g>
  <text x="90" y="330" font-size="88" font-weight="800" letter-spacing="-1.5" fill="#ece9e0">Claude Chat Viewer</text>
  <text x="90" y="392" font-size="40" fill="#9c988a">Xem offline dữ liệu export từ claude.ai</text>
  <g font-size="28" font-weight="600">
    <rect x="90" y="436" width="356" height="56" rx="28" fill="#26241f" stroke="#3a372f" stroke-width="2"/>
    <text x="268" y="473" text-anchor="middle" fill="#e08a63">100% trong trình duyệt</text>
    <rect x="466" y="436" width="286" height="56" rx="28" fill="#26241f" stroke="#3a372f" stroke-width="2"/>
    <text x="609" y="473" text-anchor="middle" fill="#e08a63">Tìm kiếm toàn văn</text>
    <rect x="772" y="436" width="314" height="56" rx="28" fill="#26241f" stroke="#3a372f" stroke-width="2"/>
    <text x="929" y="473" text-anchor="middle" fill="#e08a63">Xuất Markdown · ZIP</text>
  </g>
  <line x1="90" y1="540" x2="1110" y2="540" stroke="#3a372f" stroke-width="2"/>
  <text x="90" y="586" font-size="30" fill="#9c988a">tools.hieu-icetea.io.vn</text>
  <text x="1110" y="586" font-size="30" text-anchor="end" font-weight="600" fill="#ece9e0">Hiếu iceTea 🍀</text>
</svg>
